<svg width="23px" height="23px" viewBox="0 0 23 23" version="1.1" xmlns="http://www.w3.org/2000/svg" xmlns:xlink="http://www.w3.org/1999/xlink">
  <path d="M13.5670709,8.61102408 C13.3036453,8.33005083 13.0115582,8.08098753 12.6962378,7.86839273 C11.8610579,7.30133512 10.8901266,7 9.89839391,7 C8.52190177,6.99729278 7.20134307,7.57719725 6.22971689,8.61102408 L1.51602279,13.6129649 C0.546046822,14.6434303 0.000869605613,16.0395938 0,17.4954791 C-0.00182284201,20.5336002 2.31941442,22.998033 5.1846998,23 C6.55906403,23.005032 7.87840679,22.4278903 8.84968556,21.3968262 L12.7407066,17.2710965 C12.8114051,17.1967781 12.8508799,17.0953846 12.8503153,16.989847 C12.8491428,16.7728318 12.6822545,16.5979487 12.477585,16.599192 L12.3293701,16.599192 C11.5164246,16.602231 10.7107314,16.4366953 9.95771461,16.1119783 C9.8189667,16.0514277 9.65950432,16.0855939 9.55380404,16.1984068 L6.75596012,19.1689322 C5.88716807,20.0901303 4.4785837,20.0901303 3.60979165,19.1689322 C2.7409996,18.2477341 2.7409996,16.7541831 3.60979165,15.832985 L8.3420289,10.8192564 C9.21012613,9.89994625 10.6164089,9.89994625 11.4845061,10.8192564 C12.0695489,11.4030748 12.982115,11.4030748 13.5671143,10.8192564 C13.8188148,10.5521431 13.9714158,10.1978645 13.996994,9.82120743 C14.0240488,9.37110689 13.867496,8.93030767 13.5670709,8.61102408 Z" id="Path"></path>
  <path d="M21.4811951,1.61125696 C19.4561003,-0.537085654 16.1727703,-0.537085654 14.1476754,1.61125696 L10.262377,5.72905561 C10.1556903,5.84278788 10.1249169,6.01384673 10.1845972,6.16128427 C10.2435831,6.30913621 10.3814338,6.40403588 10.5327398,6.40095084 L10.6697658,6.40095084 C11.4813316,6.39938529 12.2853017,6.56620796 13.0364926,6.89211767 C13.175168,6.95266743 13.3345471,6.91850171 13.4401921,6.80569035 L16.2291519,3.85090771 C17.09749,2.92972241 18.5053382,2.92972241 19.3736763,3.85090771 C20.2420143,4.772093 20.2420143,6.26562326 19.3736763,7.18680855 L15.8994994,10.8684647 L15.8698546,10.9038276 L14.6550234,12.184766 C13.7873798,13.1040634 12.3818319,13.1040634 11.5141883,12.184766 C10.9294512,11.6009557 10.0173621,11.6009557 9.43266842,12.184766 C9.17949358,12.4539017 9.02684213,12.8112604 9.0030134,13.1906289 C8.97592938,13.6407232 9.13240037,14.0815163 9.43266842,14.4008415 C9.86136855,14.8575663 10.3629438,15.230028 10.9141731,15.5010054 C10.9919528,15.5402822 11.0697326,15.5717313 11.1475123,15.6070942 C11.2252921,15.6424571 11.3067612,15.6699462 11.3845409,15.7013952 C11.4623207,15.7328443 11.5437898,15.7603334 11.6215695,15.7839087 L11.8401081,15.8467607 C11.9882455,15.8860375 12.1364264,15.9174866 12.2882531,15.9449757 C12.4711571,15.9738001 12.6553632,15.9921723 12.8401335,16 L13.0993849,16 L13.1216077,16 L13.3438355,15.9725109 C13.4253046,15.968597 13.5105064,15.9489356 13.6068196,15.9489356 L13.7327343,15.9489356 L13.9882964,15.9096588 L14.1068324,15.8860836 L14.3216382,15.838933 L14.3623944,15.838933 C15.2721831,15.5965037 16.1029334,15.0967724 16.7661447,14.3929677 L21.4810649,9.39109639 C23.50629,7.24275378 23.50629,3.75959958 21.4811951,1.61125696 Z" id="Path"></path>
</svg>
