<svg version="1.1" xmlns="http://www.w3.org/2000/svg" xmlns:xlink="http://www.w3.org/1999/xlink" x="0px" y="0px"
	 viewBox="0 0 12 10.9" style="enable-background:new 0 0 12 10.9;" xml:space="preserve">
<path d="M12,10.9H9.3V7.1c0-1-0.4-1.7-1.3-1.7c-0.7,0-1.1,0.5-1.3,0.9C6.7,6.5,6.7,6.7,6.7,6.9v4H4.1c0,0,0-6.8,0-7.4
	h2.6v1.2c0.2-0.5,1-1.2,2.3-1.2c1.7,0,3,1.1,3,3.4V10.9L12,10.9z M1.4,2.6L1.4,2.6C0.5,2.6,0,2,0,1.3C0,0.6,0.6,0,1.4,0
	c0.9,0,1.4,0.6,1.4,1.3C2.8,2,2.3,2.6,1.4,2.6L1.4,2.6L1.4,2.6z M0.3,3.5h2.3v7.4H0.3V3.5L0.3,3.5z"/>
</svg>
