<svg version="1.1" xmlns="http://www.w3.org/2000/svg" xmlns:xlink="http://www.w3.org/1999/xlink" x="0px" y="0px"
	 viewBox="0 0 12 10" style="enable-background:new 0 0 12 10;" xml:space="preserve">
<path d="M12,1.2c-0.4,0.2-0.9,0.3-1.4,0.4c0.5-0.3,0.9-0.8,1.1-1.4c-0.5,0.3-1,0.5-1.6,0.6C9.7,0.3,9,0,8.3,0
	C6.9,0,5.8,1.1,5.8,2.5c0,0.2,0,0.4,0.1,0.6C3.9,3,2.1,2,0.8,0.5C0.6,0.8,0.5,1.3,0.5,1.7c0,0.9,0.4,1.6,1.1,2.1
	c-0.4,0-0.8-0.1-1.1-0.3v0c0,1.2,0.8,2.2,2,2.5C2.3,6.1,2,6.1,1.8,6.1c-0.2,0-0.3,0-0.5,0c0.3,1,1.2,1.7,2.3,1.8
	C2.8,8.5,1.7,8.9,0.6,8.9c-0.2,0-0.4,0-0.6,0C1.1,9.6,2.4,10,3.8,10c4.5,0,7-3.8,7-7.2c0-0.1,0-0.2,0-0.3C11.3,2.1,11.7,1.7,12,1.2"
	/>
</svg>
